<?xml version="1.0" encoding="UTF-8" standalone="no"?>
<!DOCTYPE svg PUBLIC "-//W3C//DTD SVG 1.1//EN" "http://www.w3.org/Graphics/SVG/1.1/DTD/svg11.dtd">
<svg width="100%" height="100%" viewBox="0 0 85 21" version="1.1" xmlns="http://www.w3.org/2000/svg" xmlns:xlink="http://www.w3.org/1999/xlink" xml:space="preserve" xmlns:serif="http://www.serif.com/" style="fill-rule:evenodd;clip-rule:evenodd;stroke-linejoin:round;stroke-miterlimit:2;">
    <g id="Artboard1" transform="matrix(0.606491,0,0,0.730808,0,0)">
        <rect x="0" y="0" width="139" height="28" style="fill:none;"/>
        <g transform="matrix(2.21699,0,0,1.83985,-50.4306,11.7755)">
            <g transform="matrix(20.8333,0,0,20.8333,21.722,8.41526)">
                <path d="M0.057,-0L0.057,-0.7L0.431,-0.7C0.528,-0.7 0.599,-0.683 0.645,-0.649C0.691,-0.614 0.714,-0.57 0.714,-0.517C0.714,-0.482 0.704,-0.45 0.685,-0.423C0.665,-0.395 0.636,-0.373 0.599,-0.357C0.562,-0.341 0.516,-0.333 0.461,-0.333L0.481,-0.387C0.536,-0.387 0.583,-0.379 0.623,-0.364C0.662,-0.349 0.693,-0.327 0.715,-0.298C0.736,-0.269 0.747,-0.234 0.747,-0.193C0.747,-0.132 0.722,-0.085 0.672,-0.051C0.621,-0.017 0.548,-0 0.451,-0L0.057,-0ZM0.289,-0.165L0.431,-0.165C0.457,-0.165 0.476,-0.17 0.49,-0.179C0.503,-0.188 0.509,-0.202 0.509,-0.22C0.509,-0.238 0.503,-0.252 0.49,-0.261C0.476,-0.27 0.457,-0.275 0.431,-0.275L0.273,-0.275L0.273,-0.431L0.399,-0.431C0.426,-0.431 0.445,-0.436 0.458,-0.445C0.47,-0.454 0.476,-0.466 0.476,-0.483C0.476,-0.5 0.47,-0.513 0.458,-0.522C0.445,-0.531 0.426,-0.535 0.399,-0.535L0.289,-0.535L0.289,-0.165Z" style="fill:rgb(57,61,66);fill-rule:nonzero;"/>
            </g>
            <g transform="matrix(20.8333,0,0,20.8333,37.8262,8.41526)">
                <path d="M0.268,-0.15L0.255,-0.409L0.519,-0.7L0.776,-0.7L0.48,-0.374L0.349,-0.24L0.268,-0.15ZM0.057,-0L0.057,-0.7L0.289,-0.7L0.289,-0L0.057,-0ZM0.517,-0L0.311,-0.272L0.464,-0.434L0.79,-0L0.517,-0Z" style="fill:rgb(57,61,66);fill-rule:nonzero;"/>
            </g>
            <g transform="matrix(20.8333,0,0,20.8333,53.7637,8.41526)">
                <path d="M0.268,-0.15L0.255,-0.409L0.519,-0.7L0.776,-0.7L0.48,-0.374L0.349,-0.24L0.268,-0.15ZM0.057,-0L0.057,-0.7L0.289,-0.7L0.289,-0L0.057,-0ZM0.517,-0L0.311,-0.272L0.464,-0.434L0.79,-0L0.517,-0Z" style="fill:rgb(57,61,66);fill-rule:nonzero;"/>
            </g>
            <g transform="matrix(20.8333,0,0,20.8333,69.7012,8.41526)">
                <path d="M0.057,-0L0.057,-0.7L0.394,-0.7C0.459,-0.7 0.516,-0.689 0.564,-0.668C0.611,-0.647 0.648,-0.616 0.674,-0.577C0.7,-0.537 0.713,-0.49 0.713,-0.436C0.713,-0.382 0.7,-0.335 0.674,-0.297C0.648,-0.258 0.611,-0.228 0.564,-0.207C0.516,-0.186 0.459,-0.176 0.394,-0.176L0.188,-0.176L0.293,-0.273L0.293,-0L0.057,-0ZM0.476,-0L0.304,-0.255L0.554,-0.255L0.728,-0L0.476,-0ZM0.293,-0.247L0.188,-0.354L0.379,-0.354C0.412,-0.354 0.436,-0.361 0.452,-0.376C0.467,-0.391 0.475,-0.411 0.475,-0.436C0.475,-0.461 0.467,-0.481 0.452,-0.496C0.436,-0.511 0.412,-0.518 0.379,-0.518L0.188,-0.518L0.293,-0.625L0.293,-0.247Z" style="fill:rgb(57,61,66);fill-rule:nonzero;"/>
            </g>
        </g>
    </g>
</svg>
